<?xml version="1.0" encoding="utf-8"?>
<svg viewBox="0 0 500 500" xmlns="http://www.w3.org/2000/svg">
  <path style="fill: rgb(216, 216, 216); stroke: rgb(0, 0, 0);" d="M 151.176 183.651 C 146.229 198.492 143.563 221.177 146.697 236.842 C 147.802 242.368 147.912 249.303 151.176 254.199 C 156.176 261.7 163.672 274.042 173.012 277.156 C 182.534 280.33 191.099 284.757 201.008 287.234 C 224.014 292.986 258.974 283.019 275.476 266.517 C 296.092 245.901 301.232 215.971 301.232 189.25"/>
  <path style="fill: rgb(216, 216, 216); stroke: rgb(0, 0, 0);" d="M 302.912 195.409 C 310.281 184.354 326.268 196.208 330.907 205.487 C 337.522 218.718 332.046 231.204 326.428 242.441 C 322.93 249.438 305.353 258.5 297.872 254.759 C 295.095 253.371 287.794 254.766 287.794 251.4"/>
  <path style="fill: rgb(216, 216, 216); stroke: rgb(0, 0, 0);" d="M 314.67 191.489 C 314.67 192.608 314.352 188.204 314.67 187.57 C 315.66 185.59 315.789 180.201 315.789 178.052 C 315.789 179.12 315.789 173.586 315.789 171.333 C 315.789 169.425 313.79 160.374 312.43 159.015 C 310.579 157.163 305.912 149.897 304.031 146.137 C 300.476 139.025 284.005 131.062 277.156 128.779 C 247.182 118.788 217.266 110.522 184.77 117.021 C 178.45 118.285 171.712 117.989 165.733 120.381 C 149.555 126.852 128.779 136.822 128.779 156.215 C 128.779 175.162 120.071 194.814 114.782 213.326 C 113.933 216.297 106.491 230.791 109.183 233.483 C 111.421 235.721 120.885 226.149 124.86 230.123 C 126.926 232.189 123.034 242.614 122.62 244.681 C 120.326 256.154 116.543 267.787 114.222 279.395 C 113.733 281.84 111.478 289.529 113.662 291.713 C 115.554 293.605 121.153 292.833 124.3 292.833 C 134.338 292.833 144.899 288.914 153.415 288.914 C 156.69 285.64 167.341 277.716 170.773 277.716"/>
  <path style="fill: rgb(216, 216, 216); stroke: rgb(0, 0, 0);" d="M 309.071 254.199 C 309.071 255.504 310.75 258.843 310.75 259.798 C 308.633 266.15 318.69 277.458 320.829 283.875 C 321.243 285.116 324.263 289.399 323.068 290.594 C 322.312 291.35 316.352 290.594 315.23 290.594 C 309.14 290.594 299.242 290.884 293.393 292.833 C 292.478 293.138 289.558 292.189 288.914 292.833 C 286.51 295.237 299.25 304.075 297.312 307.951 C 296.785 309.006 290.548 305.408 288.914 304.591 C 282.06 301.165 273.036 298.552 265.957 296.193 C 264.012 295.544 260.218 292.833 259.239 292.833"/>
  <path style="fill: rgb(216, 216, 216); stroke: rgb(0, 0, 0);" d="M 165.733 204.927 C 170.1 198.378 181.696 189.952 190.37 194.289 C 192.296 195.252 198.768 196.181 198.768 198.208 C 198.768 196.196 197.416 190.138 194.849 187.57 C 193.21 185.931 176.332 180.331 172.452 184.211 C 171.258 185.405 167.304 185.44 165.733 187.01 C 164.548 188.195 163.504 191.479 162.374 192.609 C 161.117 193.866 163.092 201.883 163.494 202.688 C 163.966 203.632 166.695 205.361 165.733 204.927 Z"/>
  <path style="fill: rgb(216, 216, 216); stroke: rgb(0, 0, 0);" d="M 231.243 199.888 C 239.847 194.152 248.882 187.851 259.798 191.489 C 262.825 192.498 268.491 199.888 269.317 199.888 C 269.877 201.783 273.13 193.623 271.557 192.049 C 267.696 188.189 266.235 184.909 260.358 181.971 C 254.854 179.219 240.254 182.478 237.402 185.33 C 235.909 186.823 232.176 186.077 230.683 187.57 C 229.087 189.166 229.754 198.399 231.243 199.888 Z"/>
  <path style="fill: rgb(216, 216, 216); stroke: rgb(0, 0, 0);" d="M 238.522 207.167 C 238.522 200.981 250.55 197.365 256.439 199.328 C 263.638 201.728 265.957 204.919 265.957 211.086"/>
  <path style="fill: rgb(216, 216, 216); stroke: rgb(0, 0, 0);" d="M 176.932 215.006 C 176.932 208.14 184.059 205.487 190.37 205.487 C 193.767 205.487 198.953 210.526 198.208 210.526"/>
  <path style="fill: rgb(216, 216, 216); stroke: rgb(0, 0, 0);" d="M 190.37 239.642 C 188.295 233.418 188.69 226.331 188.69 219.485 C 188.69 218.036 191.159 212.996 193.169 215.006 C 196.695 218.531 195.969 228.387 195.969 234.602 C 195.969 236.032 196.285 241.005 195.409 241.881 C 192.47 244.82 190.37 240.166 190.37 237.402"/>
  <path style="fill: rgb(216, 216, 216); stroke: rgb(0, 0, 0);" d="M 244.681 235.722 C 244.438 236.452 244.121 237.962 244.121 237.962 C 244.121 237.962 241.789 232.179 241.321 231.243 C 239.511 227.622 240.68 216.766 243.001 214.446 C 243.809 213.637 244.543 210.737 246.361 211.646 C 250.573 213.752 254.002 229.958 250.84 236.282 C 249.733 238.496 248.592 240.753 246.361 238.522"/>
  <path style="fill: rgb(216, 216, 216); stroke: rgb(0, 0, 0);" d="M 209.406 249.72 C 212.329 248.259 221.573 243.561 223.404 243.561"/>
  <path style="fill: rgb(216, 216, 216); stroke: rgb(0, 0, 0);" d="M 204.367 270.437 C 204.367 278.671 222.236 277.252 225.644 270.437 C 226.719 268.286 229.104 261.377 230.123 260.358"/>
  <path style="fill: rgb(216, 216, 216); stroke: rgb(0, 0, 0);" d="M 249.16 282.755 C 249.16 287.465 259.239 292.449 259.239 292.273"/>
  <path style="fill: rgb(216, 216, 216); stroke: rgb(0, 0, 0);" d="M 213.326 170.773 C 209.712 171.977 207.666 177.257 204.367 179.731 C 191.309 189.525 183.519 207.923 174.692 221.165 C 170.183 227.929 164.188 233.909 159.574 238.522 C 159.215 238.881 153.975 241.881 153.975 241.881 C 153.975 241.881 158.672 241.321 159.015 241.321"/>
  <path style="fill: rgb(216, 216, 216); stroke: rgb(0, 0, 0);" d="M 225.644 174.692 C 225.005 174.479 223.291 173.572 223.964 173.572 C 225.552 173.572 227.738 178.556 228.443 179.731 C 231.932 185.545 236.699 190.691 240.202 196.529 C 247.809 209.207 262.892 217.539 273.236 227.884 C 274.822 229.469 282.486 239.082 284.434 239.082"/>
  <path style="fill: rgb(216, 216, 216); stroke: rgb(0, 0, 0);" d="M 202.128 292.273 C 199.526 296.175 200.34 300.437 198.768 305.151 C 197.778 308.121 193.722 319.702 196.529 322.508 C 200.133 326.113 206.557 325.105 212.206 326.988 C 215.997 328.251 222.984 328.248 226.764 326.988 C 230.347 325.793 235.175 327.541 238.522 325.868 C 245.829 322.214 255.754 321.451 262.598 318.029 C 263.944 317.356 262.227 314.298 261.478 313.55 C 257.571 309.643 252.662 302.636 249.72 296.753 C 248.319 293.95 246.817 289.93 245.241 288.354 C 244.334 287.447 243.561 284.9 243.561 284.994"/>
  <path style="fill: rgb(216, 216, 216); stroke: rgb(0, 0, 0);" d="M 147.256 357.783 C 146.898 358.141 145.568 359.454 145.017 358.903 C 144.694 358.58 151.487 354.672 152.296 353.863 C 155.368 350.791 159.235 346.754 164.054 344.345 C 172.416 340.164 191.297 331.851 194.849 324.748 C 196.208 322.029 194.849 312.849 194.849 309.63 C 202.883 321.681 232.405 317.448 243.561 311.87 C 248.799 309.251 257.559 308.641 257.559 303.471"/>
  <path style="fill: rgb(216, 216, 216); stroke: rgb(0, 0, 0);" d="M 258.679 307.951 C 263.414 322.158 274.131 328.834 287.234 335.386 C 291.167 337.353 301.232 350.53 301.232 348.824"/>
  <path style="fill: rgb(216, 216, 216); stroke: rgb(0, 0, 0);" d="M 150.616 357.223 C 145.102 360.899 159.139 360.582 162.934 360.582 C 174.514 360.582 185.175 356.876 196.529 354.983 C 215.297 351.855 234.492 351.922 253.079 348.824 C 267.444 346.43 283.962 344.345 297.872 344.345"/>
</svg>